<svg width="100" height="100" viewBox="0 0 100 100" xmlns="http://www.w3.org/2000/svg">
  <!-- Contorno de la cabeza del zorro -->
  <path d="M30,60 Q10,40 30,30 Q50,10 70,30 Q90,40 70,60 Q50,80 30,60" fill="none" stroke="#e25822" stroke-width="2"/>
  
  <!-- Orejas -->
  <path d="M30,30 L25,10 Q30,5 35,10 L30,30" fill="none" stroke="#e25822" stroke-width="2"/>
  <path d="M70,30 L75,10 Q70,5 65,10 L70,30" fill="none" stroke="#e25822" stroke-width="2"/>

  <!-- Ojos cerrados riendo -->
  <path d="M40,50 Q45,45 50,50" fill="none" stroke="#e25822" stroke-width="2"/>
  <path d="M60,50 Q55,45 50,50" fill="none" stroke="#e25822" stroke-width="2"/>

  <!-- Boca riendo -->
  <path d="M45,60 Q50,65 55,60" fill="none" stroke="#e25822" stroke-width="2"/>

  <!-- Nariz -->
  <circle cx="50" cy="55" r="1" fill="#e25822"/>
</svg>
